# xmcd
#
# Track frame offsets:
#	150
#	15598
#	30681
#	44637
#	58558
#	73539
#	90657
#	107234
#	121249
#	140643
#	154331
#	168458
#
# Disc length: 2446 seconds
#
# Revision: 0
# Processed by: cddbd v1.5.2PL0 Copyright (c) Steve Scherf et al.
# Submitted via: EasyCDDAExtractor 16.0.8.1
#
DISCID=a5098c0c
DTITLE=Matthew Lee - D'altri Tempi
DYEAR=2016
DGENRE=Rock and Roll
TTITLE0=È tempo d'altri tempi
TTITLE1=Non mi credere
TTITLE2=Can I take a bite
TTITLE3=Gratitudine
TTITLE4=L'isola che non c'è
TTITLE5=Pronto a partire
TTITLE6=I'm in love
TTITLE7=Così Celeste
TTITLE8=Heartbreaker
TTITLE9=Place that I call home
TTITLE10=You're my girl
TTITLE11=Never never land
EXTD=
EXTT0=
EXTT1=
EXTT2=
EXTT3=
EXTT4=
EXTT5=
EXTT6=
EXTT7=
EXTT8=
EXTT9=
EXTT10=
EXTT11=
PLAYORDER=
